# xmcd
#
# Track frame offsets: 
#        150
#        19536
#        50797
#        72823
#
# Disc length: 1224 seconds
#
# Revision: 4
# Processed by: cddbd v1.5.2PL0 Copyright (c) Steve Scherf et al.
# Submitted via: ExactAudioCopyFreeDBPlugin 1.0
#
DISCID=2e04c604
DTITLE=Womack and Womack - 1990 - Uptown [CD Single]
DYEAR=1990
DGENRE=Pop/Funk
TTITLE0=Uptown (Single Version)
TTITLE1=Uptown (Remix)
TTITLE2=Family Spirit (Edit)
TTITLE3=Sanctification
EXTD=
EXTT0=
EXTT1=
EXTT2=
EXTT3=
PLAYORDER=
